<svg width="1440" height="596" viewBox="0 0 1440 596" fill="none" xmlns="http://www.w3.org/2000/svg">
<path d="M1274.21 95.7693L1271.6 87.6031C1268.99 79.4369 1273.62 70.8007 1281.57 68.2534L1281.78 68.1863C1289.94 65.572 1298.64 70.0562 1301.11 78.1512L1303.71 86.3174C1306.32 94.4836 1301.91 103.053 1293.75 105.667L1293.54 105.734C1285.51 108.42 1276.68 103.864 1274.21 95.7693Z" fill="url(#paint0_linear_1_103)"/>
<path d="M1383.66 99.0216L1390.93 84.924C1394.84 77.3223 1404.05 74.3728 1411.64 78.2875L1411.78 78.3587C1419.38 82.2735 1422.32 91.4866 1418.4 99.0883L1411.21 113.048C1407.36 120.859 1398.15 123.808 1390.56 119.894L1390.42 119.822C1382.69 115.836 1379.75 106.623 1383.66 99.0216Z" fill="url(#paint1_linear_1_103)"/>
<path d="M1182.2 152.591L1182.27 152.453C1186.26 144.713 1195.47 141.763 1203.06 145.678L1216.32 152.511C1223.91 156.426 1226.85 165.639 1222.93 173.241L1222.86 173.379C1219.01 181.19 1209.8 184.14 1202.21 180.225L1188.82 173.321C1181.23 169.406 1178.28 160.193 1182.2 152.591Z" fill="url(#paint2_linear_1_103)"/>
<path d="M1171.4 282.415C1168.79 274.249 1173.28 265.542 1181.3 262.856L1189.47 260.242C1197.63 257.627 1206.32 262.112 1208.79 270.207L1208.86 270.416C1211.47 278.582 1206.98 287.29 1198.89 289.766L1190.73 292.38C1182.57 294.994 1174.01 290.581 1171.4 282.415Z" fill="url(#paint3_linear_1_103)"/>
<path d="M1250.61 187.686C1274.18 141.937 1330.48 123.905 1376.18 147.465C1405.8 162.736 1423.78 191.775 1426.34 222.776C1388.08 217.256 1348.86 236.098 1330.14 272.419C1329.41 273.848 1328.71 275.288 1328.05 276.736C1303.74 271.78 1278.85 274.125 1256.33 282.824C1237.83 255.472 1234.43 219.087 1250.61 187.686Z" fill="url(#paint4_linear_1_103)"/>
<path d="M1495.5 178.369C1498.11 186.535 1493.62 195.243 1485.46 197.857L1477.3 200.471C1469.13 203.086 1460.51 198.463 1457.97 190.506L1457.9 190.297C1455.29 182.131 1459.78 173.423 1467.94 170.809L1476.1 168.195C1484.33 165.79 1492.89 170.203 1495.5 178.369Z" fill="url(#paint5_linear_1_103)"/>
<path d="M-15.1047 595.456H365.776C430.5 595.456 482.969 543.012 482.969 478.319C482.969 423.377 445.125 377.269 394.07 364.618C394.733 358.683 395.074 352.651 395.074 346.539C395.074 257.586 322.928 185.476 233.932 185.476C160.117 185.476 97.893 235.084 78.8134 302.765C76.8186 302.664 74.8105 302.613 72.7906 302.613C8.06624 302.613 -44.4032 355.057 -44.4032 419.75C-44.4032 421.412 -44.3685 423.067 -44.2999 424.712C-78.4922 436.744 -103 469.312 -103 507.603C-103 556.123 -63.648 595.456 -15.1047 595.456Z" fill="url(#paint6_linear_1_103)"/>
<path d="M365.641 595.456H746.52C811.245 595.456 863.714 543.012 863.714 478.319C863.714 423.377 825.87 377.269 774.815 364.618C775.478 358.683 775.819 352.651 775.819 346.539C775.819 257.586 703.673 185.476 614.677 185.476C540.862 185.476 478.638 235.084 459.559 302.765C457.564 302.664 455.556 302.613 453.536 302.613C388.811 302.613 336.342 355.057 336.342 419.75C336.342 421.412 336.377 423.067 336.445 424.712C302.253 436.744 277.745 469.312 277.745 507.603C277.745 556.123 317.097 595.456 365.641 595.456Z" fill="url(#paint7_linear_1_103)"/>
<path d="M750.138 595.456H1131.02C1195.74 595.456 1248.21 543.012 1248.21 478.319C1248.21 423.377 1210.37 377.269 1159.31 364.618C1159.98 358.683 1160.32 352.651 1160.32 346.539C1160.32 257.586 1088.17 185.476 999.175 185.476C925.359 185.476 863.136 235.084 844.056 302.765C842.061 302.664 840.053 302.613 838.033 302.613C773.309 302.613 720.839 355.057 720.839 419.75C720.839 421.412 720.874 423.067 720.943 424.712C686.75 436.744 662.242 469.312 662.242 507.603C662.242 556.123 701.595 595.456 750.138 595.456Z" fill="url(#paint8_linear_1_103)"/>
<path d="M1129.02 595.456H1509.9C1574.63 595.456 1627.1 543.012 1627.1 478.319C1627.1 423.377 1589.25 377.269 1538.2 364.618C1538.86 358.683 1539.2 352.651 1539.2 346.539C1539.2 257.586 1467.05 185.476 1378.06 185.476C1304.24 185.476 1242.02 235.084 1222.94 302.765C1220.95 302.664 1218.94 302.613 1216.92 302.613C1152.19 302.613 1099.72 355.057 1099.72 419.75C1099.72 421.412 1099.76 423.067 1099.83 424.712C1065.64 436.744 1041.13 469.312 1041.13 507.603C1041.13 556.123 1080.48 595.456 1129.02 595.456Z" fill="url(#paint9_linear_1_103)"/>
<defs>
<linearGradient id="paint0_linear_1_103" x1="1192.8" y1="132.015" x2="1524.12" y2="298.773" gradientUnits="userSpaceOnUse">
<stop stop-color="#DC9F2E"/>
<stop offset="1" stop-color="#DC9F2E" stop-opacity="0"/>
</linearGradient>
<linearGradient id="paint1_linear_1_103" x1="1192.8" y1="132.015" x2="1524.12" y2="298.773" gradientUnits="userSpaceOnUse">
<stop stop-color="#DC9F2E"/>
<stop offset="1" stop-color="#DC9F2E" stop-opacity="0"/>
</linearGradient>
<linearGradient id="paint2_linear_1_103" x1="1192.8" y1="132.015" x2="1524.12" y2="298.773" gradientUnits="userSpaceOnUse">
<stop stop-color="#DC9F2E"/>
<stop offset="1" stop-color="#DC9F2E" stop-opacity="0"/>
</linearGradient>
<linearGradient id="paint3_linear_1_103" x1="1192.8" y1="132.015" x2="1524.12" y2="298.773" gradientUnits="userSpaceOnUse">
<stop stop-color="#DC9F2E"/>
<stop offset="1" stop-color="#DC9F2E" stop-opacity="0"/>
</linearGradient>
<linearGradient id="paint4_linear_1_103" x1="1192.8" y1="132.015" x2="1524.12" y2="298.773" gradientUnits="userSpaceOnUse">
<stop stop-color="#DC9F2E"/>
<stop offset="1" stop-color="#DC9F2E" stop-opacity="0"/>
</linearGradient>
<linearGradient id="paint5_linear_1_103" x1="1192.8" y1="132.015" x2="1524.12" y2="298.773" gradientUnits="userSpaceOnUse">
<stop stop-color="#DC9F2E"/>
<stop offset="1" stop-color="#DC9F2E" stop-opacity="0"/>
</linearGradient>
<linearGradient id="paint6_linear_1_103" x1="762.048" y1="185.476" x2="762" y2="595.6" gradientUnits="userSpaceOnUse">
<stop stop-color="#E0A12E"/>
<stop offset="1" stop-color="#E0A12E" stop-opacity="0"/>
</linearGradient>
<linearGradient id="paint7_linear_1_103" x1="762.048" y1="185.476" x2="762" y2="595.6" gradientUnits="userSpaceOnUse">
<stop stop-color="#E0A12E"/>
<stop offset="1" stop-color="#E0A12E" stop-opacity="0"/>
</linearGradient>
<linearGradient id="paint8_linear_1_103" x1="762.048" y1="185.476" x2="762" y2="595.6" gradientUnits="userSpaceOnUse">
<stop stop-color="#E0A12E"/>
<stop offset="1" stop-color="#E0A12E" stop-opacity="0"/>
</linearGradient>
<linearGradient id="paint9_linear_1_103" x1="762.048" y1="185.476" x2="762" y2="595.6" gradientUnits="userSpaceOnUse">
<stop stop-color="#E0A12E"/>
<stop offset="1" stop-color="#E0A12E" stop-opacity="0"/>
</linearGradient>
</defs>
</svg>
