<svg width="65" height="65" viewBox="0 0 65 65" fill="none" xmlns="http://www.w3.org/2000/svg">
<path d="M17.2808 7.44901C18.0248 6.59888 17.9369 5.30826 17.0843 4.56631C16.2318 3.82437 14.9376 3.91207 14.1935 4.7622L10.6646 8.79433C8.66285 11.0815 7.53127 13.9977 7.46779 17.0328L7.31295 24.4359C7.28936 25.564 8.18733 26.4976 9.31862 26.5212C10.4499 26.5447 11.3861 25.6492 11.4097 24.5211L11.5646 17.118C11.608 15.0413 12.3822 13.046 13.7518 11.4811L17.2808 7.44901Z" fill="white"/>
<path fill-rule="evenodd" clip-rule="evenodd" d="M16.7568 21.8534C17.1363 15.8039 22.1671 11.0912 28.2455 11.0912H29.7682V9.04815C29.7682 7.54368 30.9913 6.32405 32.5 6.32405C34.0087 6.32405 35.2318 7.54368 35.2318 9.04815V11.0912H36.7545C42.8329 11.0912 47.8637 15.8039 48.2431 21.8534L48.8469 31.4789C49.0771 35.1488 50.3126 38.6854 52.419 41.7035C54.3221 44.4305 52.6279 48.1968 49.3199 48.5926L40.0124 49.7064V52.6337C40.0124 56.771 36.649 60.125 32.5 60.125C28.351 60.125 24.9876 56.771 24.9876 52.6337V49.7064L15.6801 48.5926C12.3721 48.1968 10.6778 44.4305 12.581 41.7035C14.6874 38.6854 15.9229 35.1488 16.1531 31.4789L16.7568 21.8534ZM29.0853 52.6337C29.0853 54.5143 30.6141 56.0389 32.5 56.0389C34.3859 56.0389 35.9147 54.5143 35.9147 52.6337V50.5907H29.0853V52.6337Z" fill="white"/>
<path d="M47.9157 4.56632C47.0631 5.30826 46.9752 6.59888 47.7192 7.44901L51.2482 11.4811C52.6178 13.046 53.392 15.0413 53.4354 17.118L53.5903 24.5211C53.6139 25.6492 54.5501 26.5447 55.6814 26.5212C56.8127 26.4976 57.7106 25.564 57.687 24.4359L57.5322 17.0328C57.4687 13.9977 56.3371 11.0815 54.3354 8.79433L50.8065 4.7622C50.0624 3.91207 48.7682 3.82437 47.9157 4.56632Z" fill="white"/>
</svg>
