<svg width="61" height="39" viewBox="0 0 61 39" fill="none" xmlns="http://www.w3.org/2000/svg">
<path fill-rule="evenodd" clip-rule="evenodd" d="M20.4272 7.54463C23.0319 3.49758 27.5784 0.8125 32.7552 0.8125C40.5566 0.8125 46.9338 6.91017 47.3808 14.5995C47.5525 14.5922 47.7251 14.5886 47.8985 14.5886C54.5959 14.5886 60.0252 20.0179 60.0252 26.7153C60.0252 33.4127 54.5959 38.8421 47.8985 38.8421H16.3501C7.56179 38.8421 0.4375 31.7178 0.4375 22.9295C0.4375 14.1413 7.56179 7.01697 16.3501 7.01697C17.7575 7.01697 19.1244 7.20017 20.4272 7.54463ZM38.4385 19.2888C39.2317 18.4955 39.2317 17.2094 38.4385 16.4162C37.6452 15.6229 36.3591 15.6229 35.5658 16.4162L27.523 24.459L23.5426 20.4787C22.7494 19.6854 21.4633 19.6854 20.67 20.4787C19.8768 21.2719 19.8768 22.558 20.67 23.3513L26.0867 28.768C26.8799 29.5612 28.166 29.5612 28.9593 28.768L38.4385 19.2888Z" fill="white"/>
</svg>
