<svg width="65" height="65" viewBox="0 0 65 65" fill="none" xmlns="http://www.w3.org/2000/svg">
<path d="M52.8127 32.4275C52.8127 27.1517 51.1389 23.2273 47.2172 19.3084C46.1583 18.2521 44.4466 18.2521 43.3877 19.3084C42.3287 20.3673 42.3287 22.0817 43.3877 23.1407C46.3099 26.0602 47.396 28.5763 47.396 32.4275C47.396 36.4061 45.8468 40.1463 43.0329 42.9575C40.3137 45.674 37.4049 47.0254 33.7487 47.2719L37.1233 43.8946C38.1822 42.8357 38.1822 41.124 37.1233 40.065C36.0643 39.0061 34.3527 39.0061 33.2937 40.065L23.2539 50.1048L33.2937 60.1446C33.8218 60.6727 34.5152 60.9382 35.2085 60.9382C35.9018 60.9382 36.5952 60.6727 37.1233 60.1446C38.1822 59.0857 38.1822 57.374 37.1233 56.315L33.5022 52.6967C38.7104 52.4746 43.0952 50.5517 46.8624 46.7898C50.7002 42.9548 52.8127 37.855 52.8127 32.4275Z" fill="white"/>
<path d="M17.6042 32.5007C17.6042 28.5221 19.1533 24.7819 21.9673 21.968C24.7 19.2353 27.6331 17.8838 31.33 17.6509L27.8769 21.104C26.8179 22.163 26.8179 23.8746 27.8769 24.9336C28.405 25.4644 29.0983 25.7298 29.7917 25.7298C30.485 25.7298 31.1783 25.4644 31.7065 24.9363L41.7462 14.8965L31.7065 4.85672C30.6475 3.79776 28.9358 3.79776 27.8769 4.85672C26.8179 5.91568 26.8179 7.62734 27.8769 8.6863L31.4275 12.2369C26.2437 12.4698 21.8806 14.3928 18.1377 18.1384C14.3 21.9734 12.1875 27.0732 12.1875 32.5007C12.1875 37.7765 13.8613 41.7009 17.7829 45.6198C18.311 46.148 19.0044 46.4107 19.6977 46.4107C20.391 46.4107 21.0844 46.1453 21.6125 45.6171C22.6715 44.5582 22.6715 42.8438 21.6125 41.7848C18.6902 38.868 17.6042 36.3519 17.6042 32.5007Z" fill="white"/>
</svg>
