<svg width="49" height="49" viewBox="0 0 49 49" fill="none" xmlns="http://www.w3.org/2000/svg">
<path d="M16.2349 0.434543C12.5421 0.0218191 8.72595 0.0218191 5.03316 0.434543C2.65746 0.700062 0.736433 2.57086 0.456276 4.9662C0.0145746 8.74275 0.0145746 12.5579 0.456276 16.3345C0.736433 18.7298 2.65746 20.6006 5.03316 20.8661C8.72595 21.2788 12.5421 21.2788 16.2349 20.8661C18.6106 20.6006 20.5316 18.7298 20.8118 16.3345C21.2535 12.5579 21.2535 8.74275 20.8118 4.9662C20.5316 2.57085 18.6106 0.700062 16.2349 0.434543Z" fill="white"/>
<path d="M16.2349 27.5179C12.5421 27.1052 8.72595 27.1052 5.03316 27.5179C2.65746 27.7834 0.736433 29.6542 0.456276 32.0495C0.0145746 35.8261 0.0145746 39.6412 0.456276 43.4178C0.736433 45.8131 2.65746 47.6839 5.03316 47.9494C8.72595 48.3622 12.5421 48.3622 16.2349 47.9494C18.6106 47.6839 20.5316 45.8131 20.8118 43.4178C21.2535 39.6412 21.2535 35.8261 20.8118 32.0495C20.5316 29.6542 18.6106 27.7834 16.2349 27.5179Z" fill="white"/>
<path d="M43.3183 0.434543C39.6255 0.0218191 35.8093 0.0218191 32.1165 0.434543C29.7408 0.700062 27.8198 2.57086 27.5397 4.9662C27.0979 8.74275 27.0979 12.5579 27.5397 16.3345C27.8198 18.7298 29.7408 20.6006 32.1165 20.8661C35.8093 21.2788 39.6255 21.2788 43.3183 20.8661C45.694 20.6006 47.615 18.7298 47.8952 16.3345C48.3369 12.5579 48.3369 8.74275 47.8952 4.9662C47.615 2.57085 45.694 0.700062 43.3183 0.434543Z" fill="white"/>
<path d="M43.3183 27.5179C39.6255 27.1052 35.8093 27.1052 32.1165 27.5179C29.7408 27.7834 27.8198 29.6542 27.5397 32.0495C27.0979 35.8261 27.0979 39.6412 27.5397 43.4178C27.8198 45.8131 29.7408 47.6839 32.1165 47.9494C35.8093 48.3622 39.6255 48.3622 43.3183 47.9494C45.694 47.6839 47.615 45.8131 47.8952 43.4178C48.3369 39.6412 48.3369 35.8261 47.8952 32.0495C47.615 29.6542 45.694 27.7834 43.3183 27.5179Z" fill="white"/>
</svg>
